# xmcd
#
# Track frame offsets:
#	150
#	24238
#	38621
#	54790
#	76785
#	92766
#	108272
#	121933
#	141131
#	153811
#	171719
#
# Disc length: 2535 seconds
#
# Revision: 0
# Processed by: cddbd v1.5.2PL0 Copyright (c) Steve Scherf et al.
# Submitted via: audiograbber 1.83.01
#
DISCID=7809e50b
DTITLE=Flip Kowlier - De Man Van 31
DYEAR=1900
DGENRE=
TTITLE0=Flip Kowlier - Eindelijk
TTITLE1=Flip Kowlier - Donderdagnacht
TTITLE2=Flip Kowlier - Onder Nen Buom
TTITLE3=Flip Kowlier - Elikopter
TTITLE4=Flip Kowlier - Caravan
TTITLE5=Flip Kowlier - Idderkji Ipnieuw
TTITLE6=Flip Kowlier - Meiske
TTITLE7=Flip Kowlier - Ilse Zegt
TTITLE8=Flip Kowlier - El Mundo Kapotio
TTITLE9=Flip Kowlier - Niemand
TTITLE10=Flip Kowlier - De Man Van 31
EXTD=
EXTT0=
EXTT1=
EXTT2=
EXTT3=
EXTT4=
EXTT5=
EXTT6=
EXTT7=
EXTT8=
EXTT9=
EXTT10=
PLAYORDER=
